<?xml version="1.0" encoding="UTF-8" standalone="no"?>
<svg
   viewBox="0 0 35 42"
   version="1.1"
   id="svg5"
   sodipodi:docname="favicon.svg"
   inkscape:version="1.4.2 (ebf0e940d0, 2025-05-08)"
   xmlns:inkscape="http://www.inkscape.org/namespaces/inkscape"
   xmlns:sodipodi="http://sodipodi.sourceforge.net/DTD/sodipodi-0.dtd"
   xmlns="http://www.w3.org/2000/svg"
   xmlns:svg="http://www.w3.org/2000/svg">
  <defs
     id="defs5">
    <linearGradient
       id="swatch5"
       inkscape:swatch="solid">
      <stop
         style="stop-color:#000000;stop-opacity:1;"
         offset="0"
         id="stop5" />
    </linearGradient>
  </defs>
  <sodipodi:namedview
     id="namedview5"
     pagecolor="#ffffff"
     bordercolor="#111111"
     borderopacity="1"
     inkscape:showpageshadow="0"
     inkscape:pageopacity="0"
     inkscape:pagecheckerboard="1"
     inkscape:deskcolor="#d1d1d1"
     inkscape:zoom="10.142857"
     inkscape:cx="17.450704"
     inkscape:cy="21"
     inkscape:window-width="1920"
     inkscape:window-height="1080"
     inkscape:window-x="0"
     inkscape:window-y="0"
     inkscape:window-maximized="1"
     inkscape:current-layer="svg5" />
  <g
     stroke="#000"
     stroke-linejoin="round"
     stroke-width="2.81"
     id="g5">
    <path
       fill="#fff"
       d="M65.08 60.1V31.29L36.65 60zM111.47 103.8l.13-45.5-46.52 45.36z"
       transform="matrix(.28296 0 0 .28557 -9.97 -8.06)"
       id="path1" />
    <path
       fill="#e6e6e6"
       d="M111.6 58.3l-.05 46.28 45.98-74.95z"
       transform="matrix(.28296 0 0 .28557 -9.97 -8.06)"
       id="path2" />
    <path
       fill="#b3b3b3"
       d="M65.08 31.28v72.38l30.08-29.34z"
       transform="matrix(.28296 0 0 .28557 -9.97 -8.06)"
       id="path3" />
    <path
       fill="#fff"
       d="M65.08 103.66l46.39.14-16.89 26.02z"
       transform="matrix(.28296 0 0 .28557 -9.97 -8.06)"
       id="path4" />
    <path
       fill="#e6e6e6"
       d="M111.47 103.8l-22.41 34.88 22.4 35.21z"
       transform="matrix(.28296 0 0 .28557 -9.97 -8.06)"
       id="path5" />
  </g>
  <path
     d="m 14.704225,25.436619 v 16 H 2.7042251 a 2,2 0 0 1 -1.99999996,-2 v -12 a 2,2 0 0 1 1.99999996,-2 z"
     id="path2-6"
     style="fill:#d9d9d9;stroke:#000000;stroke-opacity:1;fill-opacity:1" />
  <path
     d="M 14.704225,37.436619 H 2.7042251 a 2,2 0 0 0 -1.99999996,2"
     id="path3-7"
     style="fill:none;stroke:#000000;stroke-opacity:1" />
  <path
     d="M 4.7042251,29.436619 H 10.704225"
     id="path4-5"
     style="fill:none;stroke:#000000;stroke-opacity:1" />
</svg>
